<svg xmlns="http://www.w3.org/2000/svg" viewBox="0 0 1718.792 749.713">
  <defs/>
  <path d="M591.604 0C54.238-.005 100.084.336 78.732 6.084 47.554 14.478 20.79 33.27 8.475 55.41c-9 16.182-8.47-3.884-8.47 319.598 0 259.19.263 295.79 2.178 303.453 8.742 34.994 49.297 63.673 98.907 69.94 9.794 1.237 115.274 1.412 762.714 1.271l751.347-.164 11.029-2.195c43.508-8.664 76.543-31.746 88.991-62.18l3.12-7.625.372-298.492c.331-263.91.123-299.516-1.81-307.338-8.814-35.651-49.266-63.933-100.34-70.15-11.06-1.347-97.367-1.52-757.007-1.52C757.04.008 668.37.001 591.604 0z" fill="#14213d"/>
  <path d="M699.576 135.624v450h149.992l.254-112.15.254-112.15 55.967 71.743c53.821 68.995 56.026 71.666 57.586 69.74.891-1.1 26.108-33.384 56.035-71.74l54.412-69.736.254 112.146.256 112.147h149.99v-450h-149.992l-55.926 74.56c-30.759 41.008-56.22 74.559-56.582 74.559-.362 0-25.824-33.55-56.582-74.559l-55.924-74.56h-74.996zm675 0v224.984l-56.096.258-56.094.258 92.844 130.726c51.065 71.9 93.07 130.716 93.346 130.702.275-.014 42.726-58.842 94.336-130.727l93.836-130.701-56.086-.258-56.086-.258V135.624h-75z" fill="#e5e5e5"/>
  <path d="M639.65 132.606a280.343 273.011 0 01-80.759 38.322 115.223 112.21 0 00-202.155 75.14v25.047A274.17 267 0 01125.26 157.653S22.382 383.075 253.858 483.263a299.375 291.546 0 01-180.037 50.093c231.476 125.234 514.39 0 514.39-288.04a115.738 112.711 0 00-2.057-20.788 198.555 193.362 0 0053.497-91.922z" fill="#e5e5e5" stroke="none" stroke-width="2" stroke-linecap="round" stroke-linejoin="round"/>
</svg>